<?xml version="1.0" encoding="utf-8"?>
<!DOCTYPE svg PUBLIC "-//W3C//DTD SVG 1.1//EN" "http://www.w3.org/Graphics/SVG/1.1/DTD/svg11.dtd">
<svg version="1.1" id="Ebene_1" xmlns="http://www.w3.org/2000/svg" xmlns:xlink="http://www.w3.org/1999/xlink" x="0px"
	y="0px" width="256px" height="256px" viewBox="0 0 256 256" enable-background="new 0 0 256 256" xml:space="preserve">
	<g>
		<linearGradient id="SVGID_1_" gradientUnits="userSpaceOnUse" x1="128" y1="-4.983121e-09" x2="128" y2="256">
			<stop offset="0" style="stop-color:#58006D" />
			<stop offset="1" style="stop-color:#000000" />
		</linearGradient>
		<path fill="url(#SVGID_1_)" d="M0,17.008C0,7.654,7.654,0,17.008,0h221.984C248.346,0,256,7.654,256,17.008v221.984
		c0,9.354-7.654,17.008-17.008,17.008H17.008C7.654,256,0,248.346,0,238.992V17.008z" />
	</g>
	<path fill="none" stroke="#000000" stroke-width="14" stroke-linecap="round" stroke-miterlimit="40"
		stroke-opacity="0.5" d="
	M11.402,172.686v-9.819c9.672-463.394,14.024,355.373,38.687,0c9.672,204.207,19.344-204.207,38.687,0
	c9.672,125.666,19.344-109.958,38.687,0c9.672,47.125,19.344-31.417,38.687,0c9.672,31.417,19.344-70.687,38.687,0
	c9.672,47.125,19.344-11.781,38.687,0H259" />
	<linearGradient id="SVGID_2_" gradientUnits="userSpaceOnUse" x1="132.2992" y1="257.4203" x2="132.2992" y2="5.0027">
		<stop offset="0" style="stop-color:#889E88" />
		<stop offset="0.5" style="stop-color:#009E00" />
		<stop offset="1" style="stop-color:#889E88" />
	</linearGradient>
	<path fill="none" stroke="url(#SVGID_2_)" stroke-width="14" stroke-linecap="round" stroke-miterlimit="40"
		d="M8.5,167.983v-9.819
	c9.672-463.394,14.024,355.373,38.687,0c9.672,204.207,19.344-204.207,38.687,0c9.672,125.666,19.344-109.958,38.687,0
	c9.672,47.125,19.344-31.417,38.687,0c9.672,31.417,19.344-70.687,38.687,0c9.672,47.125,19.344-11.781,38.687,0h15.475" />
</svg>